<mxfile host="app.diagrams.net" modified="2021-04-24T12:30:41.825Z" agent="5.0 (Windows NT 10.0; Win64; x64) AppleWebKit/537.36 (KHTML, like Gecko) Chrome/90.0.4430.72 Safari/537.36" etag="H5IQhUwRo7wR8hCp58A5" version="14.6.3" type="github">
  <diagram id="-kFveXUPwsFfeu6zUe2m" name="Pilana">
    <mxGraphModel dx="2805" dy="2001" grid="1" gridSize="10" guides="1" tooltips="1" connect="1" arrows="1" fold="1" page="1" pageScale="1" pageWidth="850" pageHeight="1100" math="0" shadow="0">
      <root>
        <mxCell id="VTfaBfGXfOhWPhyagRME-0" />
        <mxCell id="VTfaBfGXfOhWPhyagRME-1" parent="VTfaBfGXfOhWPhyagRME-0" />
        <mxCell id="TEpIBOkcqICS6pkdpQE1-0" value="SUMARIJA" style="whiteSpace=wrap;html=1;align=center;" parent="VTfaBfGXfOhWPhyagRME-1" vertex="1">
          <mxGeometry x="-100" y="70" width="100" height="40" as="geometry" />
        </mxCell>
        <mxCell id="7DrTEY1Zt3KniXVHyZ8X-17" style="edgeStyle=orthogonalEdgeStyle;rounded=0;orthogonalLoop=1;jettySize=auto;html=1;entryX=1;entryY=0.5;entryDx=0;entryDy=0;" parent="VTfaBfGXfOhWPhyagRME-1" source="0d1GbfKRoJuNtfmkYxLm-1" target="0d1GbfKRoJuNtfmkYxLm-7" edge="1">
          <mxGeometry relative="1" as="geometry" />
        </mxCell>
        <mxCell id="0_KZoaDjByY7Pw-YC7at-33" style="edgeStyle=orthogonalEdgeStyle;rounded=0;orthogonalLoop=1;jettySize=auto;html=1;entryX=0;entryY=0.5;entryDx=0;entryDy=0;" edge="1" parent="VTfaBfGXfOhWPhyagRME-1" source="0d1GbfKRoJuNtfmkYxLm-1">
          <mxGeometry relative="1" as="geometry">
            <mxPoint x="510" y="10" as="targetPoint" />
          </mxGeometry>
        </mxCell>
        <mxCell id="0d1GbfKRoJuNtfmkYxLm-1" value="se_sastoji" style="shape=rhombus;perimeter=rhombusPerimeter;whiteSpace=wrap;html=1;align=center;" parent="VTfaBfGXfOhWPhyagRME-1" vertex="1">
          <mxGeometry x="260" y="-20" width="120" height="60" as="geometry" />
        </mxCell>
        <mxCell id="0d1GbfKRoJuNtfmkYxLm-7" value="DRVO" style="shape=ext;margin=3;double=1;whiteSpace=wrap;html=1;align=center;" parent="VTfaBfGXfOhWPhyagRME-1" vertex="1">
          <mxGeometry x="108" y="-10" width="100" height="40" as="geometry" />
        </mxCell>
        <mxCell id="0d1GbfKRoJuNtfmkYxLm-13" style="edgeStyle=orthogonalEdgeStyle;rounded=0;orthogonalLoop=1;jettySize=auto;html=1;entryX=1;entryY=0.5;entryDx=0;entryDy=0;" parent="VTfaBfGXfOhWPhyagRME-1" source="0d1GbfKRoJuNtfmkYxLm-11" target="TEpIBOkcqICS6pkdpQE1-0" edge="1">
          <mxGeometry relative="1" as="geometry" />
        </mxCell>
        <mxCell id="0d1GbfKRoJuNtfmkYxLm-11" value="ima_u_ponudi" style="shape=rhombus;double=1;perimeter=rhombusPerimeter;whiteSpace=wrap;html=1;align=center;" parent="VTfaBfGXfOhWPhyagRME-1" vertex="1">
          <mxGeometry x="98" y="60" width="120" height="60" as="geometry" />
        </mxCell>
        <mxCell id="0d1GbfKRoJuNtfmkYxLm-14" value="" style="shape=flexArrow;endArrow=classic;html=1;exitX=0.5;exitY=0;exitDx=0;exitDy=0;entryX=0.5;entryY=1;entryDx=0;entryDy=0;" parent="VTfaBfGXfOhWPhyagRME-1" source="0d1GbfKRoJuNtfmkYxLm-11" target="0d1GbfKRoJuNtfmkYxLm-7" edge="1">
          <mxGeometry width="50" height="50" relative="1" as="geometry">
            <mxPoint x="160" y="40" as="sourcePoint" />
            <mxPoint x="168" y="30" as="targetPoint" />
          </mxGeometry>
        </mxCell>
        <mxCell id="p3acaW3qkLm7hWmr2kke-0" value="RADNIK" style="rounded=0;whiteSpace=wrap;html=1;" parent="VTfaBfGXfOhWPhyagRME-1" vertex="1">
          <mxGeometry x="262" y="320" width="120" height="60" as="geometry" />
        </mxCell>
        <mxCell id="gWbfadfHRAJaUCDf4oUx-10" style="edgeStyle=orthogonalEdgeStyle;rounded=0;orthogonalLoop=1;jettySize=auto;html=1;entryX=0.5;entryY=1;entryDx=0;entryDy=0;" parent="VTfaBfGXfOhWPhyagRME-1" source="p3acaW3qkLm7hWmr2kke-2" target="p3acaW3qkLm7hWmr2kke-0" edge="1">
          <mxGeometry relative="1" as="geometry" />
        </mxCell>
        <mxCell id="p3acaW3qkLm7hWmr2kke-2" value="IS-a" style="shape=rhombus;double=1;perimeter=rhombusPerimeter;whiteSpace=wrap;html=1;align=center;" parent="VTfaBfGXfOhWPhyagRME-1" vertex="1">
          <mxGeometry x="262" y="420" width="120" height="60" as="geometry" />
        </mxCell>
        <mxCell id="p3acaW3qkLm7hWmr2kke-4" value="BRENTISTA" style="shape=ext;margin=3;double=1;whiteSpace=wrap;html=1;align=center;" parent="VTfaBfGXfOhWPhyagRME-1" vertex="1">
          <mxGeometry x="92" y="510" width="100" height="40" as="geometry" />
        </mxCell>
        <mxCell id="p3acaW3qkLm7hWmr2kke-5" value="CJEPAC" style="shape=ext;margin=3;double=1;whiteSpace=wrap;html=1;align=center;" parent="VTfaBfGXfOhWPhyagRME-1" vertex="1">
          <mxGeometry x="272" y="510" width="100" height="40" as="geometry" />
        </mxCell>
        <mxCell id="p3acaW3qkLm7hWmr2kke-7" value="VOZAC" style="shape=ext;margin=3;double=1;whiteSpace=wrap;html=1;align=center;" parent="VTfaBfGXfOhWPhyagRME-1" vertex="1">
          <mxGeometry x="670" y="510" width="100" height="40" as="geometry" />
        </mxCell>
        <mxCell id="p3acaW3qkLm7hWmr2kke-8" value="" style="shape=flexArrow;endArrow=classic;html=1;exitX=0.5;exitY=1;exitDx=0;exitDy=0;entryX=0.44;entryY=-0.021;entryDx=0;entryDy=0;entryPerimeter=0;" parent="VTfaBfGXfOhWPhyagRME-1" source="p3acaW3qkLm7hWmr2kke-2" target="p3acaW3qkLm7hWmr2kke-4" edge="1">
          <mxGeometry width="50" height="50" relative="1" as="geometry">
            <mxPoint x="172" y="550" as="sourcePoint" />
            <mxPoint x="222" y="500" as="targetPoint" />
            <Array as="points">
              <mxPoint x="136" y="480" />
            </Array>
          </mxGeometry>
        </mxCell>
        <mxCell id="p3acaW3qkLm7hWmr2kke-9" value="" style="shape=flexArrow;endArrow=classic;html=1;entryX=0.5;entryY=0;entryDx=0;entryDy=0;" parent="VTfaBfGXfOhWPhyagRME-1" target="p3acaW3qkLm7hWmr2kke-5" edge="1">
          <mxGeometry width="50" height="50" relative="1" as="geometry">
            <mxPoint x="322" y="480" as="sourcePoint" />
            <mxPoint x="222" y="500" as="targetPoint" />
          </mxGeometry>
        </mxCell>
        <mxCell id="p3acaW3qkLm7hWmr2kke-10" value="" style="shape=flexArrow;endArrow=classic;html=1;entryX=0.36;entryY=-0.05;entryDx=0;entryDy=0;entryPerimeter=0;" parent="VTfaBfGXfOhWPhyagRME-1" edge="1" target="p3acaW3qkLm7hWmr2kke-7">
          <mxGeometry width="50" height="50" relative="1" as="geometry">
            <mxPoint x="322" y="480" as="sourcePoint" />
            <mxPoint x="462" y="508" as="targetPoint" />
            <Array as="points">
              <mxPoint x="462" y="480" />
              <mxPoint x="706" y="480" />
            </Array>
          </mxGeometry>
        </mxCell>
        <mxCell id="hXGr55-CNzkPcO2XdoUR-0" value="KAMION" style="whiteSpace=wrap;html=1;align=center;" parent="VTfaBfGXfOhWPhyagRME-1" vertex="1">
          <mxGeometry x="680" y="690" width="100" height="40" as="geometry" />
        </mxCell>
        <mxCell id="hXGr55-CNzkPcO2XdoUR-3" style="edgeStyle=orthogonalEdgeStyle;rounded=0;orthogonalLoop=1;jettySize=auto;html=1;entryX=0.5;entryY=0;entryDx=0;entryDy=0;" parent="VTfaBfGXfOhWPhyagRME-1" source="hXGr55-CNzkPcO2XdoUR-1" target="hXGr55-CNzkPcO2XdoUR-0" edge="1">
          <mxGeometry relative="1" as="geometry" />
        </mxCell>
        <mxCell id="0_KZoaDjByY7Pw-YC7at-37" style="edgeStyle=orthogonalEdgeStyle;rounded=0;orthogonalLoop=1;jettySize=auto;html=1;entryX=0.6;entryY=1.025;entryDx=0;entryDy=0;entryPerimeter=0;" edge="1" parent="VTfaBfGXfOhWPhyagRME-1" source="hXGr55-CNzkPcO2XdoUR-1" target="p3acaW3qkLm7hWmr2kke-7">
          <mxGeometry relative="1" as="geometry" />
        </mxCell>
        <mxCell id="hXGr55-CNzkPcO2XdoUR-1" value="vozi" style="shape=rhombus;perimeter=rhombusPerimeter;whiteSpace=wrap;html=1;align=center;" parent="VTfaBfGXfOhWPhyagRME-1" vertex="1">
          <mxGeometry x="670" y="590" width="120" height="60" as="geometry" />
        </mxCell>
        <mxCell id="iNyY5vREnwNBSwG58W-f-0" value="PROIZVOD" style="whiteSpace=wrap;html=1;align=center;" parent="VTfaBfGXfOhWPhyagRME-1" vertex="1">
          <mxGeometry x="190" y="670" width="100" height="40" as="geometry" />
        </mxCell>
        <mxCell id="iNyY5vREnwNBSwG58W-f-2" value="GRADJA" style="shape=ext;margin=3;double=1;whiteSpace=wrap;html=1;align=center;" parent="VTfaBfGXfOhWPhyagRME-1" vertex="1">
          <mxGeometry x="80" y="870" width="100" height="40" as="geometry" />
        </mxCell>
        <mxCell id="7DrTEY1Zt3KniXVHyZ8X-15" style="edgeStyle=orthogonalEdgeStyle;rounded=0;orthogonalLoop=1;jettySize=auto;html=1;entryX=0.5;entryY=1;entryDx=0;entryDy=0;" parent="VTfaBfGXfOhWPhyagRME-1" source="7DrTEY1Zt3KniXVHyZ8X-8" target="iNyY5vREnwNBSwG58W-f-0" edge="1">
          <mxGeometry relative="1" as="geometry" />
        </mxCell>
        <mxCell id="7DrTEY1Zt3KniXVHyZ8X-8" value="IS-a" style="shape=rhombus;double=1;perimeter=rhombusPerimeter;whiteSpace=wrap;html=1;align=center;" parent="VTfaBfGXfOhWPhyagRME-1" vertex="1">
          <mxGeometry x="180" y="740" width="120" height="60" as="geometry" />
        </mxCell>
        <mxCell id="7DrTEY1Zt3KniXVHyZ8X-9" value="OGREV" style="shape=ext;margin=3;double=1;whiteSpace=wrap;html=1;align=center;" parent="VTfaBfGXfOhWPhyagRME-1" vertex="1">
          <mxGeometry x="290" y="870" width="100" height="40" as="geometry" />
        </mxCell>
        <mxCell id="7DrTEY1Zt3KniXVHyZ8X-11" value="" style="shape=flexArrow;endArrow=classic;html=1;exitX=0.5;exitY=1;exitDx=0;exitDy=0;entryX=0.5;entryY=0;entryDx=0;entryDy=0;" parent="VTfaBfGXfOhWPhyagRME-1" source="7DrTEY1Zt3KniXVHyZ8X-8" edge="1">
          <mxGeometry width="50" height="50" relative="1" as="geometry">
            <mxPoint x="90" y="870" as="sourcePoint" />
            <mxPoint x="130" y="870" as="targetPoint" />
            <Array as="points">
              <mxPoint x="132" y="800" />
            </Array>
          </mxGeometry>
        </mxCell>
        <mxCell id="7DrTEY1Zt3KniXVHyZ8X-12" value="" style="shape=flexArrow;endArrow=classic;html=1;entryX=0.5;entryY=0;entryDx=0;entryDy=0;" parent="VTfaBfGXfOhWPhyagRME-1" edge="1">
          <mxGeometry width="50" height="50" relative="1" as="geometry">
            <mxPoint x="240" y="800" as="sourcePoint" />
            <mxPoint x="342" y="870" as="targetPoint" />
            <Array as="points">
              <mxPoint x="342" y="800" />
            </Array>
          </mxGeometry>
        </mxCell>
        <mxCell id="7DrTEY1Zt3KniXVHyZ8X-21" style="edgeStyle=orthogonalEdgeStyle;rounded=0;orthogonalLoop=1;jettySize=auto;html=1;entryX=0.5;entryY=1;entryDx=0;entryDy=0;" parent="VTfaBfGXfOhWPhyagRME-1" source="7DrTEY1Zt3KniXVHyZ8X-20" target="p3acaW3qkLm7hWmr2kke-4" edge="1">
          <mxGeometry relative="1" as="geometry">
            <Array as="points">
              <mxPoint x="60" y="590" />
              <mxPoint x="142" y="590" />
            </Array>
          </mxGeometry>
        </mxCell>
        <mxCell id="7DrTEY1Zt3KniXVHyZ8X-22" style="edgeStyle=orthogonalEdgeStyle;rounded=0;orthogonalLoop=1;jettySize=auto;html=1;entryX=0;entryY=0.5;entryDx=0;entryDy=0;" parent="VTfaBfGXfOhWPhyagRME-1" source="7DrTEY1Zt3KniXVHyZ8X-20" target="iNyY5vREnwNBSwG58W-f-2" edge="1">
          <mxGeometry relative="1" as="geometry" />
        </mxCell>
        <mxCell id="7DrTEY1Zt3KniXVHyZ8X-20" value="proizvodi_g" style="shape=rhombus;perimeter=rhombusPerimeter;whiteSpace=wrap;html=1;align=center;" parent="VTfaBfGXfOhWPhyagRME-1" vertex="1">
          <mxGeometry y="710" width="120" height="60" as="geometry" />
        </mxCell>
        <mxCell id="7DrTEY1Zt3KniXVHyZ8X-24" style="edgeStyle=orthogonalEdgeStyle;rounded=0;orthogonalLoop=1;jettySize=auto;html=1;entryX=0.5;entryY=1;entryDx=0;entryDy=0;" parent="VTfaBfGXfOhWPhyagRME-1" source="7DrTEY1Zt3KniXVHyZ8X-23" target="p3acaW3qkLm7hWmr2kke-5" edge="1">
          <mxGeometry relative="1" as="geometry">
            <Array as="points">
              <mxPoint x="412" y="590" />
              <mxPoint x="322" y="590" />
            </Array>
          </mxGeometry>
        </mxCell>
        <mxCell id="7DrTEY1Zt3KniXVHyZ8X-25" style="edgeStyle=orthogonalEdgeStyle;rounded=0;orthogonalLoop=1;jettySize=auto;html=1;entryX=1;entryY=0.5;entryDx=0;entryDy=0;" parent="VTfaBfGXfOhWPhyagRME-1" source="7DrTEY1Zt3KniXVHyZ8X-23" target="7DrTEY1Zt3KniXVHyZ8X-9" edge="1">
          <mxGeometry relative="1" as="geometry" />
        </mxCell>
        <mxCell id="7DrTEY1Zt3KniXVHyZ8X-23" value="proizvodi_o" style="shape=rhombus;perimeter=rhombusPerimeter;whiteSpace=wrap;html=1;align=center;" parent="VTfaBfGXfOhWPhyagRME-1" vertex="1">
          <mxGeometry x="352" y="720" width="120" height="60" as="geometry" />
        </mxCell>
        <mxCell id="gWbfadfHRAJaUCDf4oUx-0" value="tipdrv" style="ellipse;whiteSpace=wrap;html=1;align=center;" parent="VTfaBfGXfOhWPhyagRME-1" vertex="1">
          <mxGeometry x="8" y="-90" width="100" height="40" as="geometry" />
        </mxCell>
        <mxCell id="gWbfadfHRAJaUCDf4oUx-1" value="kubdr" style="ellipse;whiteSpace=wrap;html=1;align=center;" parent="VTfaBfGXfOhWPhyagRME-1" vertex="1">
          <mxGeometry x="90" y="-120" width="100" height="40" as="geometry" />
        </mxCell>
        <mxCell id="gWbfadfHRAJaUCDf4oUx-2" value="klasadr" style="ellipse;whiteSpace=wrap;html=1;align=center;" parent="VTfaBfGXfOhWPhyagRME-1" vertex="1">
          <mxGeometry x="162" y="-90" width="100" height="40" as="geometry" />
        </mxCell>
        <mxCell id="gWbfadfHRAJaUCDf4oUx-3" value="" style="endArrow=none;html=1;entryX=0.5;entryY=1;entryDx=0;entryDy=0;exitX=0;exitY=0.5;exitDx=0;exitDy=0;" parent="VTfaBfGXfOhWPhyagRME-1" source="0d1GbfKRoJuNtfmkYxLm-7" target="gWbfadfHRAJaUCDf4oUx-0" edge="1">
          <mxGeometry width="50" height="50" relative="1" as="geometry">
            <mxPoint x="270" y="130" as="sourcePoint" />
            <mxPoint x="320" y="80" as="targetPoint" />
          </mxGeometry>
        </mxCell>
        <mxCell id="gWbfadfHRAJaUCDf4oUx-4" value="" style="endArrow=none;html=1;entryX=0.25;entryY=0;entryDx=0;entryDy=0;" parent="VTfaBfGXfOhWPhyagRME-1" source="gWbfadfHRAJaUCDf4oUx-1" target="0d1GbfKRoJuNtfmkYxLm-7" edge="1">
          <mxGeometry width="50" height="50" relative="1" as="geometry">
            <mxPoint x="70" y="-10" as="sourcePoint" />
            <mxPoint x="140.71067811865476" y="-60" as="targetPoint" />
          </mxGeometry>
        </mxCell>
        <mxCell id="gWbfadfHRAJaUCDf4oUx-5" value="" style="endArrow=none;html=1;entryX=0.5;entryY=0;entryDx=0;entryDy=0;" parent="VTfaBfGXfOhWPhyagRME-1" source="gWbfadfHRAJaUCDf4oUx-2" target="0d1GbfKRoJuNtfmkYxLm-7" edge="1">
          <mxGeometry width="50" height="50" relative="1" as="geometry">
            <mxPoint x="90" y="-40" as="sourcePoint" />
            <mxPoint x="90" y="-19.289321881345245" as="targetPoint" />
          </mxGeometry>
        </mxCell>
        <mxCell id="gWbfadfHRAJaUCDf4oUx-6" value="PILANA" style="whiteSpace=wrap;html=1;align=center;" parent="VTfaBfGXfOhWPhyagRME-1" vertex="1">
          <mxGeometry x="-100" y="230" width="100" height="40" as="geometry" />
        </mxCell>
        <mxCell id="KcC93rNtW8kEPos04EGD-6" style="edgeStyle=orthogonalEdgeStyle;rounded=0;orthogonalLoop=1;jettySize=auto;html=1;entryX=1;entryY=0.5;entryDx=0;entryDy=0;exitX=0;exitY=0.5;exitDx=0;exitDy=0;" parent="VTfaBfGXfOhWPhyagRME-1" source="0_KZoaDjByY7Pw-YC7at-35" target="gWbfadfHRAJaUCDf4oUx-6" edge="1">
          <mxGeometry relative="1" as="geometry">
            <mxPoint x="252" y="250" as="sourcePoint" />
            <Array as="points">
              <mxPoint x="280" y="250" />
            </Array>
          </mxGeometry>
        </mxCell>
        <mxCell id="KcC93rNtW8kEPos04EGD-7" style="edgeStyle=orthogonalEdgeStyle;rounded=0;orthogonalLoop=1;jettySize=auto;html=1;exitX=0.5;exitY=1;exitDx=0;exitDy=0;" parent="VTfaBfGXfOhWPhyagRME-1" source="0_KZoaDjByY7Pw-YC7at-35" target="p3acaW3qkLm7hWmr2kke-0" edge="1">
          <mxGeometry relative="1" as="geometry">
            <mxPoint x="322" y="280" as="sourcePoint" />
          </mxGeometry>
        </mxCell>
        <mxCell id="J5nEfUmwYeuKwN3kCp7W-1" style="edgeStyle=orthogonalEdgeStyle;rounded=0;orthogonalLoop=1;jettySize=auto;html=1;exitX=0.5;exitY=0;exitDx=0;exitDy=0;" parent="VTfaBfGXfOhWPhyagRME-1" source="0_KZoaDjByY7Pw-YC7at-25" target="TEpIBOkcqICS6pkdpQE1-0" edge="1">
          <mxGeometry relative="1" as="geometry">
            <mxPoint x="-50" y="140" as="sourcePoint" />
          </mxGeometry>
        </mxCell>
        <mxCell id="J5nEfUmwYeuKwN3kCp7W-3" style="edgeStyle=orthogonalEdgeStyle;rounded=0;orthogonalLoop=1;jettySize=auto;html=1;entryX=0.5;entryY=0;entryDx=0;entryDy=0;exitX=0.5;exitY=1;exitDx=0;exitDy=0;" parent="VTfaBfGXfOhWPhyagRME-1" source="0_KZoaDjByY7Pw-YC7at-25" target="gWbfadfHRAJaUCDf4oUx-6" edge="1">
          <mxGeometry relative="1" as="geometry">
            <mxPoint x="10" y="229" as="targetPoint" />
            <mxPoint x="-50" y="200" as="sourcePoint" />
          </mxGeometry>
        </mxCell>
        <mxCell id="vg4PYCtsixjWnY_HnI0e-2" value="tippro" style="text;html=1;strokeColor=none;fillColor=none;align=center;verticalAlign=middle;whiteSpace=wrap;rounded=0;" parent="VTfaBfGXfOhWPhyagRME-1" vertex="1">
          <mxGeometry x="302" y="760" width="40" height="20" as="geometry" />
        </mxCell>
        <mxCell id="vg4PYCtsixjWnY_HnI0e-3" value="klasatp" style="ellipse;whiteSpace=wrap;html=1;align=center;" parent="VTfaBfGXfOhWPhyagRME-1" vertex="1">
          <mxGeometry x="280" y="620" width="100" height="40" as="geometry" />
        </mxCell>
        <mxCell id="vg4PYCtsixjWnY_HnI0e-4" value="&lt;u&gt;idtp&lt;/u&gt;" style="ellipse;whiteSpace=wrap;html=1;align=center;" parent="VTfaBfGXfOhWPhyagRME-1" vertex="1">
          <mxGeometry x="120" y="610" width="100" height="40" as="geometry" />
        </mxCell>
        <mxCell id="vg4PYCtsixjWnY_HnI0e-5" value="" style="endArrow=none;html=1;" parent="VTfaBfGXfOhWPhyagRME-1" source="vg4PYCtsixjWnY_HnI0e-4" target="iNyY5vREnwNBSwG58W-f-0" edge="1">
          <mxGeometry width="50" height="50" relative="1" as="geometry">
            <mxPoint x="170" y="700" as="sourcePoint" />
            <mxPoint x="170" y="720.7106781186548" as="targetPoint" />
          </mxGeometry>
        </mxCell>
        <mxCell id="vg4PYCtsixjWnY_HnI0e-6" value="" style="endArrow=none;html=1;entryX=0.617;entryY=0.001;entryDx=0;entryDy=0;entryPerimeter=0;" parent="VTfaBfGXfOhWPhyagRME-1" source="vg4PYCtsixjWnY_HnI0e-3" target="iNyY5vREnwNBSwG58W-f-0" edge="1">
          <mxGeometry width="50" height="50" relative="1" as="geometry">
            <mxPoint x="280" y="700" as="sourcePoint" />
            <mxPoint x="280" y="720.7106781186548" as="targetPoint" />
          </mxGeometry>
        </mxCell>
        <mxCell id="vg4PYCtsixjWnY_HnI0e-7" value="tippro" style="ellipse;whiteSpace=wrap;html=1;align=center;" parent="VTfaBfGXfOhWPhyagRME-1" vertex="1">
          <mxGeometry x="202" y="580" width="100" height="40" as="geometry" />
        </mxCell>
        <mxCell id="vg4PYCtsixjWnY_HnI0e-8" value="" style="endArrow=none;html=1;entryX=0.459;entryY=-0.034;entryDx=0;entryDy=0;entryPerimeter=0;" parent="VTfaBfGXfOhWPhyagRME-1" source="vg4PYCtsixjWnY_HnI0e-7" target="iNyY5vREnwNBSwG58W-f-0" edge="1">
          <mxGeometry width="50" height="50" relative="1" as="geometry">
            <mxPoint x="258" y="660" as="sourcePoint" />
            <mxPoint x="258" y="680.7106781186548" as="targetPoint" />
          </mxGeometry>
        </mxCell>
        <mxCell id="vg4PYCtsixjWnY_HnI0e-9" value="&lt;u&gt;jmbgrad&lt;/u&gt;" style="ellipse;whiteSpace=wrap;html=1;align=center;" parent="VTfaBfGXfOhWPhyagRME-1" vertex="1">
          <mxGeometry x="372" y="200" width="100" height="40" as="geometry" />
        </mxCell>
        <mxCell id="vg4PYCtsixjWnY_HnI0e-10" value="imerad" style="ellipse;whiteSpace=wrap;html=1;align=center;" parent="VTfaBfGXfOhWPhyagRME-1" vertex="1">
          <mxGeometry x="450" y="230" width="100" height="40" as="geometry" />
        </mxCell>
        <mxCell id="vg4PYCtsixjWnY_HnI0e-11" value="przrad" style="ellipse;whiteSpace=wrap;html=1;align=center;" parent="VTfaBfGXfOhWPhyagRME-1" vertex="1">
          <mxGeometry x="450" y="280" width="100" height="40" as="geometry" />
        </mxCell>
        <mxCell id="vg4PYCtsixjWnY_HnI0e-12" value="adrrad" style="ellipse;whiteSpace=wrap;html=1;align=center;" parent="VTfaBfGXfOhWPhyagRME-1" vertex="1">
          <mxGeometry x="450" y="330" width="100" height="40" as="geometry" />
        </mxCell>
        <mxCell id="vg4PYCtsixjWnY_HnI0e-13" value="tiprad" style="ellipse;whiteSpace=wrap;html=1;align=center;" parent="VTfaBfGXfOhWPhyagRME-1" vertex="1">
          <mxGeometry x="425" y="430" width="100" height="40" as="geometry" />
        </mxCell>
        <mxCell id="vg4PYCtsixjWnY_HnI0e-14" value="" style="endArrow=none;html=1;entryX=0.75;entryY=0;entryDx=0;entryDy=0;" parent="VTfaBfGXfOhWPhyagRME-1" source="vg4PYCtsixjWnY_HnI0e-9" target="p3acaW3qkLm7hWmr2kke-0" edge="1">
          <mxGeometry width="50" height="50" relative="1" as="geometry">
            <mxPoint x="-60" y="460" as="sourcePoint" />
            <mxPoint x="10.710678118654755" y="410" as="targetPoint" />
          </mxGeometry>
        </mxCell>
        <mxCell id="vg4PYCtsixjWnY_HnI0e-15" value="" style="endArrow=none;html=1;entryX=0.925;entryY=0;entryDx=0;entryDy=0;entryPerimeter=0;" parent="VTfaBfGXfOhWPhyagRME-1" source="vg4PYCtsixjWnY_HnI0e-10" target="p3acaW3qkLm7hWmr2kke-0" edge="1">
          <mxGeometry width="50" height="50" relative="1" as="geometry">
            <mxPoint x="-60" y="510" as="sourcePoint" />
            <mxPoint x="10.710678118654755" y="460" as="targetPoint" />
          </mxGeometry>
        </mxCell>
        <mxCell id="vg4PYCtsixjWnY_HnI0e-16" value="" style="endArrow=none;html=1;entryX=1;entryY=0.25;entryDx=0;entryDy=0;" parent="VTfaBfGXfOhWPhyagRME-1" source="vg4PYCtsixjWnY_HnI0e-11" target="p3acaW3qkLm7hWmr2kke-0" edge="1">
          <mxGeometry width="50" height="50" relative="1" as="geometry">
            <mxPoint x="-70" y="560" as="sourcePoint" />
            <mxPoint x="0.710678118654755" y="510" as="targetPoint" />
          </mxGeometry>
        </mxCell>
        <mxCell id="vg4PYCtsixjWnY_HnI0e-17" value="" style="endArrow=none;html=1;entryX=1;entryY=0.5;entryDx=0;entryDy=0;" parent="VTfaBfGXfOhWPhyagRME-1" source="vg4PYCtsixjWnY_HnI0e-12" target="p3acaW3qkLm7hWmr2kke-0" edge="1">
          <mxGeometry width="50" height="50" relative="1" as="geometry">
            <mxPoint x="-50" y="620" as="sourcePoint" />
            <mxPoint x="20.710678118654755" y="570" as="targetPoint" />
          </mxGeometry>
        </mxCell>
        <mxCell id="vg4PYCtsixjWnY_HnI0e-18" value="" style="endArrow=none;html=1;entryX=0.833;entryY=1.067;entryDx=0;entryDy=0;entryPerimeter=0;" parent="VTfaBfGXfOhWPhyagRME-1" source="vg4PYCtsixjWnY_HnI0e-13" target="p3acaW3qkLm7hWmr2kke-0" edge="1">
          <mxGeometry width="50" height="50" relative="1" as="geometry">
            <mxPoint x="-80" y="680" as="sourcePoint" />
            <mxPoint x="292" y="380" as="targetPoint" />
          </mxGeometry>
        </mxCell>
        <mxCell id="vg4PYCtsixjWnY_HnI0e-19" value="tiprad" style="text;html=1;strokeColor=none;fillColor=none;align=center;verticalAlign=middle;whiteSpace=wrap;rounded=0;" parent="VTfaBfGXfOhWPhyagRME-1" vertex="1">
          <mxGeometry x="385" y="440" width="40" height="20" as="geometry" />
        </mxCell>
        <mxCell id="2gYSpfkT61Sv5RoiNzm1-0" value="&lt;u&gt;datnab&lt;/u&gt;" style="ellipse;whiteSpace=wrap;html=1;align=center;" parent="VTfaBfGXfOhWPhyagRME-1" vertex="1">
          <mxGeometry x="550" y="-110" width="100" height="40" as="geometry" />
        </mxCell>
        <mxCell id="2gYSpfkT61Sv5RoiNzm1-1" value="kolnab" style="ellipse;whiteSpace=wrap;html=1;align=center;" parent="VTfaBfGXfOhWPhyagRME-1" vertex="1">
          <mxGeometry x="460" y="-140" width="100" height="40" as="geometry" />
        </mxCell>
        <mxCell id="2gYSpfkT61Sv5RoiNzm1-3" value="nabcijena" style="ellipse;whiteSpace=wrap;html=1;align=center;" parent="VTfaBfGXfOhWPhyagRME-1" vertex="1">
          <mxGeometry x="382" y="-110" width="100" height="40" as="geometry" />
        </mxCell>
        <mxCell id="2gYSpfkT61Sv5RoiNzm1-4" value="" style="endArrow=none;html=1;entryX=0.25;entryY=0;entryDx=0;entryDy=0;" parent="VTfaBfGXfOhWPhyagRME-1" source="2gYSpfkT61Sv5RoiNzm1-3" edge="1">
          <mxGeometry width="50" height="50" relative="1" as="geometry">
            <mxPoint x="432" y="-20" as="sourcePoint" />
            <mxPoint x="535" y="-10" as="targetPoint" />
          </mxGeometry>
        </mxCell>
        <mxCell id="2gYSpfkT61Sv5RoiNzm1-5" value="" style="endArrow=none;html=1;entryX=0.5;entryY=0;entryDx=0;entryDy=0;" parent="VTfaBfGXfOhWPhyagRME-1" source="2gYSpfkT61Sv5RoiNzm1-1" edge="1">
          <mxGeometry width="50" height="50" relative="1" as="geometry">
            <mxPoint x="510" y="-50" as="sourcePoint" />
            <mxPoint x="560" y="-10" as="targetPoint" />
          </mxGeometry>
        </mxCell>
        <mxCell id="2gYSpfkT61Sv5RoiNzm1-6" value="" style="endArrow=none;html=1;entryX=0.75;entryY=0;entryDx=0;entryDy=0;" parent="VTfaBfGXfOhWPhyagRME-1" source="2gYSpfkT61Sv5RoiNzm1-0" edge="1">
          <mxGeometry width="50" height="50" relative="1" as="geometry">
            <mxPoint x="600" y="-20" as="sourcePoint" />
            <mxPoint x="585" y="-10" as="targetPoint" />
          </mxGeometry>
        </mxCell>
        <mxCell id="2gYSpfkT61Sv5RoiNzm1-8" value="idsum" style="ellipse;whiteSpace=wrap;html=1;align=center;fontStyle=4;" parent="VTfaBfGXfOhWPhyagRME-1" vertex="1">
          <mxGeometry x="-130" y="-10" width="100" height="40" as="geometry" />
        </mxCell>
        <mxCell id="2gYSpfkT61Sv5RoiNzm1-9" value="nazsum" style="ellipse;whiteSpace=wrap;html=1;align=center;" parent="VTfaBfGXfOhWPhyagRME-1" vertex="1">
          <mxGeometry x="-230" y="20" width="100" height="40" as="geometry" />
        </mxCell>
        <mxCell id="2gYSpfkT61Sv5RoiNzm1-10" value="adrsum" style="ellipse;whiteSpace=wrap;html=1;align=center;" parent="VTfaBfGXfOhWPhyagRME-1" vertex="1">
          <mxGeometry x="-230" y="70" width="100" height="40" as="geometry" />
        </mxCell>
        <mxCell id="2gYSpfkT61Sv5RoiNzm1-11" value="" style="endArrow=none;html=1;" parent="VTfaBfGXfOhWPhyagRME-1" source="2gYSpfkT61Sv5RoiNzm1-8" target="TEpIBOkcqICS6pkdpQE1-0" edge="1">
          <mxGeometry width="50" height="50" relative="1" as="geometry">
            <mxPoint x="159.28932188134524" y="170" as="sourcePoint" />
            <mxPoint x="159.28932188134524" y="120" as="targetPoint" />
          </mxGeometry>
        </mxCell>
        <mxCell id="2gYSpfkT61Sv5RoiNzm1-12" value="" style="endArrow=none;html=1;entryX=0;entryY=0.25;entryDx=0;entryDy=0;" parent="VTfaBfGXfOhWPhyagRME-1" source="2gYSpfkT61Sv5RoiNzm1-9" target="TEpIBOkcqICS6pkdpQE1-0" edge="1">
          <mxGeometry width="50" height="50" relative="1" as="geometry">
            <mxPoint x="159.28932188134524" y="240" as="sourcePoint" />
            <mxPoint x="159.28932188134524" y="190" as="targetPoint" />
          </mxGeometry>
        </mxCell>
        <mxCell id="2gYSpfkT61Sv5RoiNzm1-13" value="" style="endArrow=none;html=1;" parent="VTfaBfGXfOhWPhyagRME-1" source="2gYSpfkT61Sv5RoiNzm1-10" target="TEpIBOkcqICS6pkdpQE1-0" edge="1">
          <mxGeometry width="50" height="50" relative="1" as="geometry">
            <mxPoint x="129.28932188134524" y="310" as="sourcePoint" />
            <mxPoint x="129.28932188134524" y="260" as="targetPoint" />
          </mxGeometry>
        </mxCell>
        <mxCell id="8D43oT3hLqDlBvZ6XODB-2" value="iddrv" style="ellipse;whiteSpace=wrap;html=1;align=center;fontStyle=4;" parent="VTfaBfGXfOhWPhyagRME-1" vertex="1">
          <mxGeometry x="-30" y="-20" width="100" height="40" as="geometry" />
        </mxCell>
        <mxCell id="8D43oT3hLqDlBvZ6XODB-3" value="" style="endArrow=none;html=1;entryX=0;entryY=0.75;entryDx=0;entryDy=0;" parent="VTfaBfGXfOhWPhyagRME-1" source="8D43oT3hLqDlBvZ6XODB-2" target="0d1GbfKRoJuNtfmkYxLm-7" edge="1">
          <mxGeometry width="50" height="50" relative="1" as="geometry">
            <mxPoint x="70" y="50" as="sourcePoint" />
            <mxPoint x="140.71067811865476" as="targetPoint" />
          </mxGeometry>
        </mxCell>
        <mxCell id="ZHPt1p4zr0oMGotxa86n-0" value="tipk" style="ellipse;whiteSpace=wrap;html=1;align=center;" parent="VTfaBfGXfOhWPhyagRME-1" vertex="1">
          <mxGeometry x="730" y="770" width="100" height="40" as="geometry" />
        </mxCell>
        <mxCell id="ZHPt1p4zr0oMGotxa86n-1" value="&lt;u&gt;idk&lt;/u&gt;" style="ellipse;whiteSpace=wrap;html=1;align=center;" parent="VTfaBfGXfOhWPhyagRME-1" vertex="1">
          <mxGeometry x="620" y="770" width="100" height="40" as="geometry" />
        </mxCell>
        <mxCell id="ZHPt1p4zr0oMGotxa86n-3" value="" style="endArrow=none;html=1;" parent="VTfaBfGXfOhWPhyagRME-1" source="ZHPt1p4zr0oMGotxa86n-0" target="hXGr55-CNzkPcO2XdoUR-0" edge="1">
          <mxGeometry width="50" height="50" relative="1" as="geometry">
            <mxPoint x="740" y="450" as="sourcePoint" />
            <mxPoint x="740" y="470.71067811865476" as="targetPoint" />
          </mxGeometry>
        </mxCell>
        <mxCell id="KcC93rNtW8kEPos04EGD-11" style="edgeStyle=orthogonalEdgeStyle;rounded=0;orthogonalLoop=1;jettySize=auto;html=1;" parent="VTfaBfGXfOhWPhyagRME-1" source="KcC93rNtW8kEPos04EGD-4" target="gWbfadfHRAJaUCDf4oUx-6" edge="1">
          <mxGeometry relative="1" as="geometry" />
        </mxCell>
        <mxCell id="0_KZoaDjByY7Pw-YC7at-0" style="edgeStyle=orthogonalEdgeStyle;rounded=0;orthogonalLoop=1;jettySize=auto;html=1;entryX=0;entryY=0.5;entryDx=0;entryDy=0;" edge="1" parent="VTfaBfGXfOhWPhyagRME-1" source="KcC93rNtW8kEPos04EGD-4" target="iNyY5vREnwNBSwG58W-f-0">
          <mxGeometry relative="1" as="geometry">
            <Array as="points">
              <mxPoint x="-50" y="690" />
            </Array>
          </mxGeometry>
        </mxCell>
        <mxCell id="KcC93rNtW8kEPos04EGD-4" value="nudi" style="shape=associativeEntity;whiteSpace=wrap;html=1;align=center;" parent="VTfaBfGXfOhWPhyagRME-1" vertex="1">
          <mxGeometry x="-120" y="450" width="140" height="60" as="geometry" />
        </mxCell>
        <mxCell id="0_KZoaDjByY7Pw-YC7at-6" value="dom(tiprad) = {brentista, cjepac, vozac, knjigovodja)" style="text;html=1;strokeColor=none;fillColor=none;align=center;verticalAlign=middle;whiteSpace=wrap;rounded=0;" vertex="1" parent="VTfaBfGXfOhWPhyagRME-1">
          <mxGeometry x="590" y="410" width="40" height="20" as="geometry" />
        </mxCell>
        <mxCell id="0_KZoaDjByY7Pw-YC7at-7" value="&lt;u&gt;nazpil&lt;/u&gt;" style="ellipse;whiteSpace=wrap;html=1;align=center;" vertex="1" parent="VTfaBfGXfOhWPhyagRME-1">
          <mxGeometry x="-240" y="230" width="100" height="40" as="geometry" />
        </mxCell>
        <mxCell id="0_KZoaDjByY7Pw-YC7at-8" value="brtpil" style="ellipse;whiteSpace=wrap;html=1;align=center;" vertex="1" parent="VTfaBfGXfOhWPhyagRME-1">
          <mxGeometry x="-210" y="320" width="100" height="40" as="geometry" />
        </mxCell>
        <mxCell id="0_KZoaDjByY7Pw-YC7at-9" value="adrpil" style="ellipse;whiteSpace=wrap;html=1;align=center;" vertex="1" parent="VTfaBfGXfOhWPhyagRME-1">
          <mxGeometry x="-240" y="280" width="100" height="40" as="geometry" />
        </mxCell>
        <mxCell id="0_KZoaDjByY7Pw-YC7at-10" value="emailpil" style="ellipse;whiteSpace=wrap;html=1;align=center;" vertex="1" parent="VTfaBfGXfOhWPhyagRME-1">
          <mxGeometry x="-160" y="360" width="100" height="40" as="geometry" />
        </mxCell>
        <mxCell id="0_KZoaDjByY7Pw-YC7at-11" value="" style="endArrow=none;html=1;entryX=0;entryY=0.25;entryDx=0;entryDy=0;" edge="1" parent="VTfaBfGXfOhWPhyagRME-1" source="0_KZoaDjByY7Pw-YC7at-7" target="gWbfadfHRAJaUCDf4oUx-6">
          <mxGeometry width="50" height="50" relative="1" as="geometry">
            <mxPoint x="-150" y="250" as="sourcePoint" />
            <mxPoint x="-79.28932188134524" y="200" as="targetPoint" />
          </mxGeometry>
        </mxCell>
        <mxCell id="0_KZoaDjByY7Pw-YC7at-12" value="" style="endArrow=none;html=1;" edge="1" parent="VTfaBfGXfOhWPhyagRME-1" source="0_KZoaDjByY7Pw-YC7at-9">
          <mxGeometry width="50" height="50" relative="1" as="geometry">
            <mxPoint x="-160" y="300" as="sourcePoint" />
            <mxPoint x="-100" y="250" as="targetPoint" />
          </mxGeometry>
        </mxCell>
        <mxCell id="0_KZoaDjByY7Pw-YC7at-13" value="" style="endArrow=none;html=1;entryX=0;entryY=0.75;entryDx=0;entryDy=0;" edge="1" parent="VTfaBfGXfOhWPhyagRME-1" source="0_KZoaDjByY7Pw-YC7at-8" target="gWbfadfHRAJaUCDf4oUx-6">
          <mxGeometry width="50" height="50" relative="1" as="geometry">
            <mxPoint x="-170" y="350" as="sourcePoint" />
            <mxPoint x="-99.28932188134524" y="300" as="targetPoint" />
          </mxGeometry>
        </mxCell>
        <mxCell id="0_KZoaDjByY7Pw-YC7at-14" value="" style="endArrow=none;html=1;entryX=0.25;entryY=1;entryDx=0;entryDy=0;" edge="1" parent="VTfaBfGXfOhWPhyagRME-1" source="0_KZoaDjByY7Pw-YC7at-10" target="gWbfadfHRAJaUCDf4oUx-6">
          <mxGeometry width="50" height="50" relative="1" as="geometry">
            <mxPoint x="-140" y="390" as="sourcePoint" />
            <mxPoint x="-69.28932188134524" y="340" as="targetPoint" />
          </mxGeometry>
        </mxCell>
        <mxCell id="0_KZoaDjByY7Pw-YC7at-15" value="datsklapug" style="ellipse;whiteSpace=wrap;html=1;align=center;" vertex="1" parent="VTfaBfGXfOhWPhyagRME-1">
          <mxGeometry x="-250" y="120" width="100" height="40" as="geometry" />
        </mxCell>
        <mxCell id="0_KZoaDjByY7Pw-YC7at-16" value="datistekug" style="ellipse;whiteSpace=wrap;html=1;align=center;" vertex="1" parent="VTfaBfGXfOhWPhyagRME-1">
          <mxGeometry x="-240" y="170" width="100" height="40" as="geometry" />
        </mxCell>
        <mxCell id="0_KZoaDjByY7Pw-YC7at-17" value="" style="endArrow=none;html=1;entryX=1;entryY=0.5;entryDx=0;entryDy=0;exitX=0;exitY=0.5;exitDx=0;exitDy=0;" edge="1" parent="VTfaBfGXfOhWPhyagRME-1" source="0_KZoaDjByY7Pw-YC7at-25" target="0_KZoaDjByY7Pw-YC7at-15">
          <mxGeometry width="50" height="50" relative="1" as="geometry">
            <mxPoint x="-110" y="170" as="sourcePoint" />
            <mxPoint x="-240" y="160" as="targetPoint" />
          </mxGeometry>
        </mxCell>
        <mxCell id="0_KZoaDjByY7Pw-YC7at-18" value="" style="endArrow=none;html=1;entryX=1;entryY=0.5;entryDx=0;entryDy=0;exitX=0;exitY=0.75;exitDx=0;exitDy=0;" edge="1" parent="VTfaBfGXfOhWPhyagRME-1" source="0_KZoaDjByY7Pw-YC7at-25" target="0_KZoaDjByY7Pw-YC7at-16">
          <mxGeometry width="50" height="50" relative="1" as="geometry">
            <mxPoint x="-110" y="170" as="sourcePoint" />
            <mxPoint x="80.71067811865476" y="170" as="targetPoint" />
          </mxGeometry>
        </mxCell>
        <mxCell id="0_KZoaDjByY7Pw-YC7at-19" value="DIREKTOR" style="shape=ext;margin=3;double=1;whiteSpace=wrap;html=1;align=center;" vertex="1" parent="VTfaBfGXfOhWPhyagRME-1">
          <mxGeometry x="472" y="510" width="100" height="40" as="geometry" />
        </mxCell>
        <mxCell id="0_KZoaDjByY7Pw-YC7at-20" value="" style="shape=flexArrow;endArrow=classic;html=1;entryX=0.5;entryY=0;entryDx=0;entryDy=0;" edge="1" parent="VTfaBfGXfOhWPhyagRME-1" target="0_KZoaDjByY7Pw-YC7at-19">
          <mxGeometry width="50" height="50" relative="1" as="geometry">
            <mxPoint x="320" y="480" as="sourcePoint" />
            <mxPoint x="660" y="630" as="targetPoint" />
            <Array as="points">
              <mxPoint x="522" y="480" />
            </Array>
          </mxGeometry>
        </mxCell>
        <mxCell id="0_KZoaDjByY7Pw-YC7at-25" value="ima_ugovor" style="shape=associativeEntity;whiteSpace=wrap;html=1;align=center;" vertex="1" parent="VTfaBfGXfOhWPhyagRME-1">
          <mxGeometry x="-120" y="130" width="140" height="60" as="geometry" />
        </mxCell>
        <mxCell id="0_KZoaDjByY7Pw-YC7at-28" style="edgeStyle=orthogonalEdgeStyle;rounded=0;orthogonalLoop=1;jettySize=auto;html=1;entryX=0.88;entryY=0;entryDx=0;entryDy=0;entryPerimeter=0;exitX=0.5;exitY=1;exitDx=0;exitDy=0;" edge="1" parent="VTfaBfGXfOhWPhyagRME-1" source="0_KZoaDjByY7Pw-YC7at-40" target="0_KZoaDjByY7Pw-YC7at-19">
          <mxGeometry relative="1" as="geometry">
            <mxPoint x="560" y="200" as="sourcePoint" />
          </mxGeometry>
        </mxCell>
        <mxCell id="0_KZoaDjByY7Pw-YC7at-32" style="edgeStyle=orthogonalEdgeStyle;rounded=0;orthogonalLoop=1;jettySize=auto;html=1;entryX=0.5;entryY=1;entryDx=0;entryDy=0;exitX=0.5;exitY=0;exitDx=0;exitDy=0;" edge="1" parent="VTfaBfGXfOhWPhyagRME-1" source="0_KZoaDjByY7Pw-YC7at-40">
          <mxGeometry relative="1" as="geometry">
            <mxPoint x="560" y="140" as="sourcePoint" />
            <mxPoint x="560" y="30" as="targetPoint" />
          </mxGeometry>
        </mxCell>
        <mxCell id="0_KZoaDjByY7Pw-YC7at-34" value="NABAVKA" style="whiteSpace=wrap;html=1;align=center;" vertex="1" parent="VTfaBfGXfOhWPhyagRME-1">
          <mxGeometry x="510" y="-10" width="100" height="40" as="geometry" />
        </mxCell>
        <mxCell id="0_KZoaDjByY7Pw-YC7at-35" value="zaposljava" style="shape=rhombus;perimeter=rhombusPerimeter;whiteSpace=wrap;html=1;align=center;" vertex="1" parent="VTfaBfGXfOhWPhyagRME-1">
          <mxGeometry x="262" y="220" width="120" height="60" as="geometry" />
        </mxCell>
        <mxCell id="0_KZoaDjByY7Pw-YC7at-36" value="" style="endArrow=none;html=1;entryX=0.5;entryY=1;entryDx=0;entryDy=0;" edge="1" parent="VTfaBfGXfOhWPhyagRME-1" source="ZHPt1p4zr0oMGotxa86n-1" target="hXGr55-CNzkPcO2XdoUR-0">
          <mxGeometry width="50" height="50" relative="1" as="geometry">
            <mxPoint x="670" y="749.2893218813452" as="sourcePoint" />
            <mxPoint x="670" y="699.2893218813452" as="targetPoint" />
          </mxGeometry>
        </mxCell>
        <mxCell id="0_KZoaDjByY7Pw-YC7at-39" style="edgeStyle=orthogonalEdgeStyle;rounded=0;orthogonalLoop=1;jettySize=auto;html=1;" edge="1" parent="VTfaBfGXfOhWPhyagRME-1" source="0_KZoaDjByY7Pw-YC7at-38">
          <mxGeometry relative="1" as="geometry">
            <mxPoint x="740" y="509" as="targetPoint" />
            <Array as="points">
              <mxPoint x="740" y="440" />
              <mxPoint x="740" y="440" />
            </Array>
          </mxGeometry>
        </mxCell>
        <mxCell id="0_KZoaDjByY7Pw-YC7at-42" style="edgeStyle=orthogonalEdgeStyle;rounded=0;orthogonalLoop=1;jettySize=auto;html=1;entryX=1;entryY=0.5;entryDx=0;entryDy=0;" edge="1" parent="VTfaBfGXfOhWPhyagRME-1" source="0_KZoaDjByY7Pw-YC7at-38" target="0_KZoaDjByY7Pw-YC7at-40">
          <mxGeometry relative="1" as="geometry" />
        </mxCell>
        <mxCell id="0_KZoaDjByY7Pw-YC7at-38" value="nabavlja" style="shape=rhombus;perimeter=rhombusPerimeter;whiteSpace=wrap;html=1;align=center;" vertex="1" parent="VTfaBfGXfOhWPhyagRME-1">
          <mxGeometry x="680" y="130" width="120" height="60" as="geometry" />
        </mxCell>
        <mxCell id="0_KZoaDjByY7Pw-YC7at-43" style="edgeStyle=orthogonalEdgeStyle;rounded=0;orthogonalLoop=1;jettySize=auto;html=1;entryX=1;entryY=0.5;entryDx=0;entryDy=0;" edge="1" parent="VTfaBfGXfOhWPhyagRME-1" source="0_KZoaDjByY7Pw-YC7at-40" target="0_KZoaDjByY7Pw-YC7at-25">
          <mxGeometry relative="1" as="geometry" />
        </mxCell>
        <mxCell id="0_KZoaDjByY7Pw-YC7at-40" value="kreira" style="shape=associativeEntity;whiteSpace=wrap;html=1;align=center;" vertex="1" parent="VTfaBfGXfOhWPhyagRME-1">
          <mxGeometry x="490" y="130" width="140" height="60" as="geometry" />
        </mxCell>
        <mxCell id="0_KZoaDjByY7Pw-YC7at-44" value="KUPAC" style="whiteSpace=wrap;html=1;align=center;" vertex="1" parent="VTfaBfGXfOhWPhyagRME-1">
          <mxGeometry x="-290" y="600" width="100" height="40" as="geometry" />
        </mxCell>
        <mxCell id="0_KZoaDjByY7Pw-YC7at-46" style="edgeStyle=orthogonalEdgeStyle;rounded=0;orthogonalLoop=1;jettySize=auto;html=1;entryX=0.5;entryY=0;entryDx=0;entryDy=0;" edge="1" parent="VTfaBfGXfOhWPhyagRME-1" source="0_KZoaDjByY7Pw-YC7at-45" target="0_KZoaDjByY7Pw-YC7at-44">
          <mxGeometry relative="1" as="geometry" />
        </mxCell>
        <mxCell id="0_KZoaDjByY7Pw-YC7at-47" style="edgeStyle=orthogonalEdgeStyle;rounded=0;orthogonalLoop=1;jettySize=auto;html=1;entryX=0;entryY=0.5;entryDx=0;entryDy=0;exitX=0.5;exitY=0;exitDx=0;exitDy=0;" edge="1" parent="VTfaBfGXfOhWPhyagRME-1" source="0_KZoaDjByY7Pw-YC7at-45" target="KcC93rNtW8kEPos04EGD-4">
          <mxGeometry relative="1" as="geometry">
            <Array as="points">
              <mxPoint x="-240" y="480" />
            </Array>
          </mxGeometry>
        </mxCell>
        <mxCell id="0_KZoaDjByY7Pw-YC7at-45" value="kupuje" style="shape=rhombus;perimeter=rhombusPerimeter;whiteSpace=wrap;html=1;align=center;" vertex="1" parent="VTfaBfGXfOhWPhyagRME-1">
          <mxGeometry x="-300" y="500" width="120" height="60" as="geometry" />
        </mxCell>
        <mxCell id="0_KZoaDjByY7Pw-YC7at-48" value="imekup" style="ellipse;whiteSpace=wrap;html=1;align=center;" vertex="1" parent="VTfaBfGXfOhWPhyagRME-1">
          <mxGeometry x="-400" y="690" width="100" height="40" as="geometry" />
        </mxCell>
        <mxCell id="0_KZoaDjByY7Pw-YC7at-49" value="przkup" style="ellipse;whiteSpace=wrap;html=1;align=center;" vertex="1" parent="VTfaBfGXfOhWPhyagRME-1">
          <mxGeometry x="-330" y="720" width="100" height="40" as="geometry" />
        </mxCell>
        <mxCell id="0_KZoaDjByY7Pw-YC7at-50" value="brtkup" style="ellipse;whiteSpace=wrap;html=1;align=center;" vertex="1" parent="VTfaBfGXfOhWPhyagRME-1">
          <mxGeometry x="-240" y="700" width="100" height="40" as="geometry" />
        </mxCell>
        <mxCell id="0_KZoaDjByY7Pw-YC7at-51" value="adrkup" style="ellipse;whiteSpace=wrap;html=1;align=center;" vertex="1" parent="VTfaBfGXfOhWPhyagRME-1">
          <mxGeometry x="-180" y="650" width="100" height="40" as="geometry" />
        </mxCell>
        <mxCell id="0_KZoaDjByY7Pw-YC7at-52" value="" style="endArrow=none;html=1;exitX=0.5;exitY=0;exitDx=0;exitDy=0;entryX=0.25;entryY=1;entryDx=0;entryDy=0;" edge="1" parent="VTfaBfGXfOhWPhyagRME-1" source="0_KZoaDjByY7Pw-YC7at-48" target="0_KZoaDjByY7Pw-YC7at-44">
          <mxGeometry width="50" height="50" relative="1" as="geometry">
            <mxPoint x="-340" y="665" as="sourcePoint" />
            <mxPoint x="-290" y="615" as="targetPoint" />
          </mxGeometry>
        </mxCell>
        <mxCell id="0_KZoaDjByY7Pw-YC7at-53" value="" style="endArrow=none;html=1;entryX=0.5;entryY=1;entryDx=0;entryDy=0;" edge="1" parent="VTfaBfGXfOhWPhyagRME-1" source="0_KZoaDjByY7Pw-YC7at-49" target="0_KZoaDjByY7Pw-YC7at-44">
          <mxGeometry width="50" height="50" relative="1" as="geometry">
            <mxPoint x="-340" y="669.2893218813452" as="sourcePoint" />
            <mxPoint x="-340" y="619.2893218813452" as="targetPoint" />
          </mxGeometry>
        </mxCell>
        <mxCell id="0_KZoaDjByY7Pw-YC7at-54" value="" style="endArrow=none;html=1;entryX=0.6;entryY=1;entryDx=0;entryDy=0;entryPerimeter=0;" edge="1" parent="VTfaBfGXfOhWPhyagRME-1" source="0_KZoaDjByY7Pw-YC7at-50" target="0_KZoaDjByY7Pw-YC7at-44">
          <mxGeometry width="50" height="50" relative="1" as="geometry">
            <mxPoint x="-220" y="669.2893218813452" as="sourcePoint" />
            <mxPoint x="-220" y="619.2893218813452" as="targetPoint" />
          </mxGeometry>
        </mxCell>
        <mxCell id="0_KZoaDjByY7Pw-YC7at-55" value="" style="endArrow=none;html=1;entryX=0.86;entryY=1.043;entryDx=0;entryDy=0;entryPerimeter=0;" edge="1" parent="VTfaBfGXfOhWPhyagRME-1" source="0_KZoaDjByY7Pw-YC7at-51" target="0_KZoaDjByY7Pw-YC7at-44">
          <mxGeometry width="50" height="50" relative="1" as="geometry">
            <mxPoint x="-110" y="679.2893218813452" as="sourcePoint" />
            <mxPoint x="-110" y="629.2893218813452" as="targetPoint" />
          </mxGeometry>
        </mxCell>
        <mxCell id="0_KZoaDjByY7Pw-YC7at-56" value="&lt;u&gt;idkup&lt;/u&gt;" style="ellipse;whiteSpace=wrap;html=1;align=center;" vertex="1" parent="VTfaBfGXfOhWPhyagRME-1">
          <mxGeometry x="-430" y="640" width="100" height="40" as="geometry" />
        </mxCell>
        <mxCell id="0_KZoaDjByY7Pw-YC7at-58" value="" style="endArrow=none;html=1;entryX=0;entryY=0.75;entryDx=0;entryDy=0;" edge="1" parent="VTfaBfGXfOhWPhyagRME-1" source="0_KZoaDjByY7Pw-YC7at-56" target="0_KZoaDjByY7Pw-YC7at-44">
          <mxGeometry width="50" height="50" relative="1" as="geometry">
            <mxPoint x="-370" y="650" as="sourcePoint" />
            <mxPoint x="-299.28932188134524" y="600" as="targetPoint" />
          </mxGeometry>
        </mxCell>
        <mxCell id="0_KZoaDjByY7Pw-YC7at-60" value="pltrad" style="ellipse;whiteSpace=wrap;html=1;align=center;" vertex="1" parent="VTfaBfGXfOhWPhyagRME-1">
          <mxGeometry x="440" y="380" width="100" height="40" as="geometry" />
        </mxCell>
        <mxCell id="0_KZoaDjByY7Pw-YC7at-61" value="" style="endArrow=none;html=1;entryX=0;entryY=0.5;entryDx=0;entryDy=0;exitX=1;exitY=0.75;exitDx=0;exitDy=0;" edge="1" parent="VTfaBfGXfOhWPhyagRME-1" source="p3acaW3qkLm7hWmr2kke-0" target="0_KZoaDjByY7Pw-YC7at-60">
          <mxGeometry width="50" height="50" relative="1" as="geometry">
            <mxPoint x="450" y="390" as="sourcePoint" />
            <mxPoint x="500" y="340" as="targetPoint" />
          </mxGeometry>
        </mxCell>
        <mxCell id="0_KZoaDjByY7Pw-YC7at-71" style="edgeStyle=orthogonalEdgeStyle;rounded=0;orthogonalLoop=1;jettySize=auto;html=1;exitX=0.5;exitY=1;exitDx=0;exitDy=0;entryX=0.25;entryY=0;entryDx=0;entryDy=0;" edge="1" parent="VTfaBfGXfOhWPhyagRME-1" source="0_KZoaDjByY7Pw-YC7at-69" target="p3acaW3qkLm7hWmr2kke-4">
          <mxGeometry relative="1" as="geometry">
            <mxPoint x="100" y="480" as="targetPoint" />
            <Array as="points">
              <mxPoint x="117" y="420" />
            </Array>
          </mxGeometry>
        </mxCell>
        <mxCell id="0_KZoaDjByY7Pw-YC7at-77" value="ima_vodju" style="edgeLabel;html=1;align=center;verticalAlign=middle;resizable=0;points=[];" vertex="1" connectable="0" parent="0_KZoaDjByY7Pw-YC7at-71">
          <mxGeometry x="-0.3978" y="-4" relative="1" as="geometry">
            <mxPoint x="37" y="5" as="offset" />
          </mxGeometry>
        </mxCell>
        <mxCell id="0_KZoaDjByY7Pw-YC7at-73" style="edgeStyle=orthogonalEdgeStyle;rounded=0;orthogonalLoop=1;jettySize=auto;html=1;entryX=0.25;entryY=1;entryDx=0;entryDy=0;" edge="1" parent="VTfaBfGXfOhWPhyagRME-1" source="0_KZoaDjByY7Pw-YC7at-69" target="p3acaW3qkLm7hWmr2kke-4">
          <mxGeometry relative="1" as="geometry">
            <Array as="points">
              <mxPoint x="120" y="320" />
              <mxPoint x="40" y="320" />
              <mxPoint x="40" y="570" />
              <mxPoint x="117" y="570" />
            </Array>
          </mxGeometry>
        </mxCell>
        <mxCell id="0_KZoaDjByY7Pw-YC7at-75" value="je_vodja" style="edgeLabel;html=1;align=center;verticalAlign=middle;resizable=0;points=[];" vertex="1" connectable="0" parent="0_KZoaDjByY7Pw-YC7at-73">
          <mxGeometry x="-0.606" y="-1" relative="1" as="geometry">
            <mxPoint x="2" y="-9" as="offset" />
          </mxGeometry>
        </mxCell>
        <mxCell id="0_KZoaDjByY7Pw-YC7at-69" value="vodjenje" style="shape=rhombus;perimeter=rhombusPerimeter;whiteSpace=wrap;html=1;align=center;" vertex="1" parent="VTfaBfGXfOhWPhyagRME-1">
          <mxGeometry x="60" y="360" width="120" height="60" as="geometry" />
        </mxCell>
        <mxCell id="0_KZoaDjByY7Pw-YC7at-78" value="(1, N)" style="text;html=1;strokeColor=none;fillColor=none;align=center;verticalAlign=middle;whiteSpace=wrap;rounded=0;" vertex="1" parent="VTfaBfGXfOhWPhyagRME-1">
          <mxGeometry x="-40" y="210" width="40" height="20" as="geometry" />
        </mxCell>
        <mxCell id="0_KZoaDjByY7Pw-YC7at-79" value="(0, M)" style="text;html=1;strokeColor=none;fillColor=none;align=center;verticalAlign=middle;whiteSpace=wrap;rounded=0;" vertex="1" parent="VTfaBfGXfOhWPhyagRME-1">
          <mxGeometry x="-50" y="110" width="40" height="20" as="geometry" />
        </mxCell>
        <mxCell id="0_KZoaDjByY7Pw-YC7at-80" value="(1, N)" style="text;html=1;strokeColor=none;fillColor=none;align=center;verticalAlign=middle;whiteSpace=wrap;rounded=0;" vertex="1" parent="VTfaBfGXfOhWPhyagRME-1">
          <mxGeometry y="90" width="40" height="20" as="geometry" />
        </mxCell>
        <mxCell id="0_KZoaDjByY7Pw-YC7at-81" value="(1, N)" style="text;html=1;strokeColor=none;fillColor=none;align=center;verticalAlign=middle;whiteSpace=wrap;rounded=0;" vertex="1" parent="VTfaBfGXfOhWPhyagRME-1">
          <mxGeometry x="470" y="10" width="40" height="20" as="geometry" />
        </mxCell>
        <mxCell id="0_KZoaDjByY7Pw-YC7at-82" value="(0, M)" style="text;html=1;strokeColor=none;fillColor=none;align=center;verticalAlign=middle;whiteSpace=wrap;rounded=0;" vertex="1" parent="VTfaBfGXfOhWPhyagRME-1">
          <mxGeometry x="208" y="-20" width="40" height="20" as="geometry" />
        </mxCell>
        <mxCell id="0_KZoaDjByY7Pw-YC7at-83" value="(1, N)" style="text;html=1;strokeColor=none;fillColor=none;align=center;verticalAlign=middle;whiteSpace=wrap;rounded=0;" vertex="1" parent="VTfaBfGXfOhWPhyagRME-1">
          <mxGeometry x="-40" y="280" width="40" height="20" as="geometry" />
        </mxCell>
        <mxCell id="0_KZoaDjByY7Pw-YC7at-84" value="(0, 1)" style="text;html=1;strokeColor=none;fillColor=none;align=center;verticalAlign=middle;whiteSpace=wrap;rounded=0;" vertex="1" parent="VTfaBfGXfOhWPhyagRME-1">
          <mxGeometry x="150" y="670" width="40" height="20" as="geometry" />
        </mxCell>
        <mxCell id="0_KZoaDjByY7Pw-YC7at-85" value="(0, N)" style="text;html=1;strokeColor=none;fillColor=none;align=center;verticalAlign=middle;whiteSpace=wrap;rounded=0;" vertex="1" parent="VTfaBfGXfOhWPhyagRME-1">
          <mxGeometry x="-240" y="570" width="40" height="20" as="geometry" />
        </mxCell>
        <mxCell id="0_KZoaDjByY7Pw-YC7at-86" value="(0, M)" style="text;html=1;strokeColor=none;fillColor=none;align=center;verticalAlign=middle;whiteSpace=wrap;rounded=0;" vertex="1" parent="VTfaBfGXfOhWPhyagRME-1">
          <mxGeometry x="-160" y="480" width="40" height="20" as="geometry" />
        </mxCell>
        <mxCell id="0_KZoaDjByY7Pw-YC7at-87" value="(1, N)" style="text;html=1;strokeColor=none;fillColor=none;align=center;verticalAlign=middle;whiteSpace=wrap;rounded=0;" vertex="1" parent="VTfaBfGXfOhWPhyagRME-1">
          <mxGeometry x="8" y="230" width="40" height="20" as="geometry" />
        </mxCell>
        <mxCell id="0_KZoaDjByY7Pw-YC7at-88" value="(1, 1)" style="text;html=1;strokeColor=none;fillColor=none;align=center;verticalAlign=middle;whiteSpace=wrap;rounded=0;" vertex="1" parent="VTfaBfGXfOhWPhyagRME-1">
          <mxGeometry x="280" y="290" width="40" height="20" as="geometry" />
        </mxCell>
        <mxCell id="0_KZoaDjByY7Pw-YC7at-89" value="(0, N)" style="text;html=1;strokeColor=none;fillColor=none;align=center;verticalAlign=middle;whiteSpace=wrap;rounded=0;" vertex="1" parent="VTfaBfGXfOhWPhyagRME-1">
          <mxGeometry x="152" y="550" width="40" height="20" as="geometry" />
        </mxCell>
        <mxCell id="0_KZoaDjByY7Pw-YC7at-90" value="(1, M)" style="text;html=1;strokeColor=none;fillColor=none;align=center;verticalAlign=middle;whiteSpace=wrap;rounded=0;" vertex="1" parent="VTfaBfGXfOhWPhyagRME-1">
          <mxGeometry x="38" y="890" width="40" height="20" as="geometry" />
        </mxCell>
        <mxCell id="0_KZoaDjByY7Pw-YC7at-92" value="(0, N)" style="text;html=1;strokeColor=none;fillColor=none;align=center;verticalAlign=middle;whiteSpace=wrap;rounded=0;" vertex="1" parent="VTfaBfGXfOhWPhyagRME-1">
          <mxGeometry x="332" y="550" width="40" height="20" as="geometry" />
        </mxCell>
        <mxCell id="0_KZoaDjByY7Pw-YC7at-93" value="(1, M)" style="text;html=1;strokeColor=none;fillColor=none;align=center;verticalAlign=middle;whiteSpace=wrap;rounded=0;" vertex="1" parent="VTfaBfGXfOhWPhyagRME-1">
          <mxGeometry x="392" y="890" width="40" height="30" as="geometry" />
        </mxCell>
        <mxCell id="0_KZoaDjByY7Pw-YC7at-94" value="(1, N)" style="text;html=1;strokeColor=none;fillColor=none;align=center;verticalAlign=middle;whiteSpace=wrap;rounded=0;" vertex="1" parent="VTfaBfGXfOhWPhyagRME-1">
          <mxGeometry x="248" y="710" width="40" height="20" as="geometry" />
        </mxCell>
        <mxCell id="0_KZoaDjByY7Pw-YC7at-95" value="(1, N)" style="text;html=1;strokeColor=none;fillColor=none;align=center;verticalAlign=middle;whiteSpace=wrap;rounded=0;" vertex="1" parent="VTfaBfGXfOhWPhyagRME-1">
          <mxGeometry x="730" y="550" width="40" height="20" as="geometry" />
        </mxCell>
        <mxCell id="0_KZoaDjByY7Pw-YC7at-96" value="(0, M)" style="text;html=1;strokeColor=none;fillColor=none;align=center;verticalAlign=middle;whiteSpace=wrap;rounded=0;" vertex="1" parent="VTfaBfGXfOhWPhyagRME-1">
          <mxGeometry x="740" y="670" width="40" height="20" as="geometry" />
        </mxCell>
        <mxCell id="0_KZoaDjByY7Pw-YC7at-97" value="(0, M)" style="text;html=1;strokeColor=none;fillColor=none;align=center;verticalAlign=middle;whiteSpace=wrap;rounded=0;" vertex="1" parent="VTfaBfGXfOhWPhyagRME-1">
          <mxGeometry x="750" y="490" width="40" height="20" as="geometry" />
        </mxCell>
        <mxCell id="0_KZoaDjByY7Pw-YC7at-98" value="(1, 1)" style="text;html=1;strokeColor=none;fillColor=none;align=center;verticalAlign=middle;whiteSpace=wrap;rounded=0;" vertex="1" parent="VTfaBfGXfOhWPhyagRME-1">
          <mxGeometry x="630" y="140" width="40" height="20" as="geometry" />
        </mxCell>
        <mxCell id="0_KZoaDjByY7Pw-YC7at-99" value="(0, N)" style="text;html=1;strokeColor=none;fillColor=none;align=center;verticalAlign=middle;whiteSpace=wrap;rounded=0;" vertex="1" parent="VTfaBfGXfOhWPhyagRME-1">
          <mxGeometry x="572" y="490" width="40" height="20" as="geometry" />
        </mxCell>
        <mxCell id="0_KZoaDjByY7Pw-YC7at-100" value="(1, 1)" style="text;html=1;strokeColor=none;fillColor=none;align=center;verticalAlign=middle;whiteSpace=wrap;rounded=0;" vertex="1" parent="VTfaBfGXfOhWPhyagRME-1">
          <mxGeometry x="570" y="30" width="40" height="20" as="geometry" />
        </mxCell>
        <mxCell id="0_KZoaDjByY7Pw-YC7at-101" value="(1, 1)" style="text;html=1;strokeColor=none;fillColor=none;align=center;verticalAlign=middle;whiteSpace=wrap;rounded=0;" vertex="1" parent="VTfaBfGXfOhWPhyagRME-1">
          <mxGeometry x="20" y="140" width="40" height="20" as="geometry" />
        </mxCell>
        <mxCell id="0_KZoaDjByY7Pw-YC7at-102" value="(0, 1)" style="text;html=1;strokeColor=none;fillColor=none;align=center;verticalAlign=middle;whiteSpace=wrap;rounded=0;" vertex="1" parent="VTfaBfGXfOhWPhyagRME-1">
          <mxGeometry x="70" y="480" width="40" height="20" as="geometry" />
        </mxCell>
        <mxCell id="0_KZoaDjByY7Pw-YC7at-103" value="(0, N)" style="text;html=1;strokeColor=none;fillColor=none;align=center;verticalAlign=middle;whiteSpace=wrap;rounded=0;" vertex="1" parent="VTfaBfGXfOhWPhyagRME-1">
          <mxGeometry x="70" y="550" width="40" height="20" as="geometry" />
        </mxCell>
      </root>
    </mxGraphModel>
  </diagram>
</mxfile>
